<svg width="497" height="357" viewBox="0 0 497 357" fill="none" xmlns="http://www.w3.org/2000/svg">
<rect width="497" height="357" rx="10.0334" fill="#E9E9EB"/>
<path d="M273.937 171.875C279.838 171.875 284.625 167.088 284.625 161.187C284.625 155.287 279.838 150.5 273.937 150.5C268.037 150.5 263.25 155.287 263.25 161.187C263.25 167.088 268.037 171.875 273.937 171.875Z" fill="#474747"/>
<path d="M292.641 136.25H205.359C201.886 136.25 199.125 139.078 199.125 142.551V215.449C199.125 218.922 201.886 221.75 205.359 221.75H292.641C296.114 221.75 298.875 218.922 298.875 215.449V142.551C298.875 139.078 296.114 136.25 292.641 136.25ZM269.685 180.269C269.017 179.49 267.993 178.889 266.835 178.889C265.699 178.889 264.898 179.423 263.985 180.158L259.821 183.676C258.953 184.299 258.262 184.722 257.261 184.722C256.303 184.722 255.435 184.366 254.811 183.809C254.589 183.609 254.188 183.23 253.854 182.896L241.875 169.938C240.984 168.914 239.648 168.268 238.157 168.268C236.665 168.268 235.284 169.003 234.416 170.005L206.25 203.982V145.98C206.473 144.466 207.653 143.375 209.167 143.375H288.811C290.347 143.375 291.594 144.511 291.683 146.047L291.75 204.027L269.685 180.269Z" fill="#474747"/>
</svg>
