<svg width="45" height="45" viewBox="0 0 45 45" fill="none" xmlns="http://www.w3.org/2000/svg">
<g id="electric-car.svg" clip-path="url(#clip0_28_10609)">
<path id="Vector" d="M44.3301 22.33C44.3301 10.1797 34.4803 0.329956 22.3301 0.329956C10.1798 0.329956 0.330078 10.1797 0.330078 22.33C0.330078 34.4802 10.1798 44.33 22.3301 44.33C34.4803 44.33 44.3301 34.4802 44.3301 22.33Z" fill="#E9FFED"/>
<path id="Vector_2" d="M30.0384 23.7712C29.9533 23.8569 29.8404 23.9034 29.72 23.9034L27.0327 23.9006C26.7475 23.9006 26.5124 23.6861 26.4856 23.4024C26.4592 23.1211 26.6474 22.8676 26.9235 22.8111L29.6254 22.2617C29.6556 22.2556 29.6856 22.2523 29.7152 22.2523C29.8173 22.2523 29.917 22.2872 29.9979 22.353C30.1024 22.4376 30.163 22.5637 30.164 22.6987L30.1686 23.4518C30.1696 23.5722 30.1231 23.6856 30.0384 23.7712ZM20.0846 23.3291C20.0578 23.6127 19.8225 23.8272 19.5375 23.8276L16.8507 23.8305C16.7303 23.8305 16.6169 23.7834 16.5318 23.6978C16.4471 23.6127 16.4006 23.4994 16.401 23.3785L16.4067 22.6258C16.4072 22.4908 16.4678 22.3648 16.5726 22.2796C16.6536 22.2142 16.7528 22.1795 16.855 22.1795C16.8846 22.1795 16.9146 22.1823 16.9448 22.1884L19.6467 22.7383C19.9228 22.7943 20.111 23.0482 20.0846 23.3291ZM18.7073 17.6994C18.7647 17.5688 18.8884 17.4841 19.0215 17.4841H27.3874C27.5209 17.4841 27.6441 17.5688 27.7015 17.6994L28.433 19.2494H18.0535L18.7073 17.6994ZM31.7421 19.6487L31.6457 19.2856C31.5691 18.995 31.2867 18.8082 30.989 18.8515L29.8912 19.0109L28.997 17.1176C28.711 16.4774 28.0802 16.064 27.3874 16.064H19.0215C18.3253 16.064 17.6917 16.4812 17.4034 17.1373L16.6174 18.9996L15.5976 18.8515C15.3003 18.8082 15.0176 18.995 14.941 19.2856L14.845 19.6487C14.773 19.9215 14.9028 20.2071 15.1555 20.3312L15.8869 20.6912L15.1107 21.6093C14.7787 22.0021 14.5957 22.5026 14.5957 23.0177V27.5653C14.5957 28.1689 15.0863 28.6604 15.6902 28.6604H17.6428C18.2464 28.6604 18.7374 28.1689 18.7374 27.5653V26.5295H27.8492V27.5653C27.8492 28.1689 28.3408 28.6604 28.9442 28.6604H30.8968C31.5004 28.6604 31.9915 28.1689 31.9915 27.5653V23.0177C31.9915 22.5026 31.8085 22.0021 31.4759 21.6093L30.7002 20.6912L31.4312 20.3312C31.6838 20.2071 31.8141 19.9215 31.7421 19.6487Z" fill="#35B574"/>
<g id="Mask group">
<mask id="mask0_28_10609" style="mask-type:luminance" maskUnits="userSpaceOnUse" x="4" y="5" width="37" height="35">
<g id="Group">
<path id="Vector_3" d="M4.38818 5.67773H40.0876V39.1536H4.38818V5.67773Z" fill="white"/>
</g>
</mask>
<g mask="url(#mask0_28_10609)">
<g id="Group_2">
<path id="Vector_4" d="M39.6962 19.0099C39.4774 17.942 39.1571 16.9053 38.7347 15.9007C38.3118 14.8959 37.7954 13.9419 37.1853 13.0388C36.7347 12.3713 36.2389 11.7396 35.6975 11.1436C35.156 10.5476 34.5746 9.99399 33.9532 9.48173C33.3319 8.96996 32.6771 8.50521 31.9885 8.08752C31.3003 7.67029 30.5858 7.30433 29.8445 6.99011C28.8321 6.56206 27.788 6.23749 26.7112 6.01688C25.602 5.79063 24.4811 5.67726 23.3494 5.67774C21.2501 5.67774 19.2035 6.06298 17.2659 6.82265C16.3312 7.18861 15.4366 7.63594 14.5828 8.16419C13.7291 8.69196 12.9299 9.29264 12.1848 9.96576C12.1542 9.99445 12.127 10.026 12.1025 10.0598C12.078 10.0937 12.0573 10.1299 12.0399 10.1676C12.0225 10.2057 12.0089 10.2452 11.9995 10.2856C11.9896 10.3261 11.984 10.3675 11.9821 10.4093C11.9807 10.4507 11.983 10.4921 11.9891 10.5335C11.9952 10.5749 12.0056 10.6154 12.0197 10.6544C12.0338 10.6939 12.0517 10.7316 12.0733 10.7673C12.0945 10.8031 12.1194 10.8364 12.1472 10.8675C12.1754 10.8985 12.206 10.9263 12.2394 10.9517C12.2728 10.9766 12.308 10.9983 12.3457 11.0166C12.3833 11.0345 12.4224 11.0491 12.4628 11.0594C12.5033 11.0702 12.5442 11.0768 12.5856 11.0792C12.6274 11.082 12.6688 11.0806 12.7103 11.0749C12.7516 11.0698 12.7921 11.0603 12.8315 11.0472C12.8711 11.0335 12.9093 11.0166 12.9454 10.9959C12.9816 10.9752 13.0155 10.9512 13.047 10.9239C15.8778 8.37257 19.536 6.96706 23.3494 6.96706C31.8394 6.96706 38.7464 13.8789 38.7464 22.3745C38.7464 30.8701 31.8394 37.7815 23.3494 37.7815C14.8589 37.7815 7.95229 30.8697 7.95229 22.374C7.95229 22.1821 7.95558 21.9898 7.96263 21.7978C8.14233 21.7687 8.31777 21.7244 8.489 21.6642C8.66069 21.6045 8.82579 21.5297 8.98384 21.4404C9.14236 21.3514 9.29147 21.2489 9.43165 21.1331C9.57229 21.0175 9.70118 20.8905 9.81877 20.7521C9.93684 20.6139 10.0413 20.4661 10.133 20.3091C10.2247 20.1519 10.3023 19.9883 10.3649 19.8175C10.4275 19.6473 10.475 19.4722 10.5069 19.2935C10.5385 19.1142 10.5545 18.9336 10.5545 18.7521V15.8771H9.40437V13.2068C9.40343 13.1719 9.39872 13.1376 9.39119 13.1037C9.38368 13.0699 9.37285 13.0369 9.35874 13.0053C9.34462 12.9734 9.3277 12.9432 9.30793 12.9146C9.28771 12.8864 9.26561 12.86 9.24068 12.8356C9.21574 12.8116 9.18846 12.79 9.1593 12.7712C9.1306 12.7518 9.09956 12.7358 9.06757 12.7226C9.03511 12.7099 9.00218 12.7001 8.96785 12.6931C8.93398 12.6865 8.89965 12.6832 8.86484 12.6832C8.83003 12.6832 8.79569 12.6865 8.76136 12.6931C8.72749 12.7001 8.69409 12.7099 8.6621 12.7226C8.62965 12.7358 8.59907 12.7518 8.56991 12.7712C8.54075 12.79 8.51393 12.8116 8.489 12.8356C8.46406 12.86 8.44149 12.8864 8.42174 12.9146C8.40197 12.9432 8.38505 12.9734 8.37093 13.0053C8.35682 13.0369 8.346 13.0699 8.33848 13.1037C8.33047 13.1376 8.32625 13.1719 8.3253 13.2068V15.8771H6.5703V13.2068C6.56936 13.1719 6.56512 13.1376 6.5576 13.1037C6.5496 13.0699 6.53878 13.0369 6.52468 13.0053C6.51056 12.9734 6.49363 12.9432 6.47387 12.9146C6.45412 12.8864 6.43153 12.86 6.40661 12.8356C6.38168 12.8116 6.35486 12.79 6.3257 12.7712C6.29654 12.7518 6.26596 12.7358 6.23351 12.7226C6.20152 12.7099 6.16812 12.7001 6.13425 12.6931C6.09992 12.6865 6.06557 12.6832 6.03076 12.6832C5.99643 12.6832 5.96162 12.6865 5.92776 12.6931C5.89341 12.7001 5.86048 12.7099 5.82803 12.7226C5.79605 12.7358 5.76547 12.7518 5.73631 12.7712C5.70714 12.79 5.68033 12.8116 5.65541 12.8356C5.63 12.86 5.60789 12.8864 5.58814 12.9146C5.56791 12.9432 5.55098 12.9734 5.53734 13.0053C5.52322 13.0369 5.51241 13.0699 5.50441 13.1037C5.49689 13.1376 5.49264 13.1719 5.49124 13.2068V15.8771H4.38818V18.7521C4.38818 18.9209 4.4023 19.0885 4.42958 19.2549C4.45734 19.4214 4.49778 19.5842 4.55235 19.7441C4.60645 19.904 4.67324 20.0578 4.75274 20.2069C4.83223 20.3557 4.92348 20.4967 5.02602 20.6308C5.12905 20.7644 5.24193 20.889 5.3647 21.0043C5.48795 21.1195 5.61966 21.2239 5.75982 21.3175C5.9 21.4117 6.04723 21.4931 6.20058 21.5626C6.3544 21.6323 6.51244 21.6887 6.67519 21.7325C6.6672 21.946 6.66297 22.16 6.66297 22.374C6.66297 23.5072 6.77586 24.6285 7.00211 25.7387C7.22084 26.8064 7.54117 27.8432 7.96405 28.8479C8.38645 29.8532 8.90294 30.8071 9.5135 31.7102C9.96366 32.3777 10.4594 33.0094 11.0008 33.6054C11.5427 34.2014 12.1241 34.755 12.745 35.2673C13.3664 35.779 14.0216 36.2438 14.7098 36.6614C15.398 37.0787 16.113 37.4446 16.8539 37.7589C17.8661 38.1869 18.9109 38.511 19.987 38.7316C21.0962 38.9579 22.2172 39.0708 23.3494 39.0708C24.4816 39.0708 25.602 38.9579 26.7112 38.7316C27.7789 38.5129 28.8148 38.1922 29.8191 37.7693C30.8234 37.3464 31.7763 36.8294 32.679 36.2189C33.346 35.7682 33.9772 35.272 34.5733 34.7301C35.1687 34.1882 35.7224 33.6064 36.2337 32.985C36.7454 32.3631 37.2097 31.7079 37.627 31.0188C38.0441 30.3301 38.4097 29.6147 38.7239 28.8733C39.1515 27.8606 39.4756 26.8153 39.6962 25.7382C39.9225 24.6281 40.0354 23.5067 40.0354 22.374C40.0354 21.2409 39.9225 20.12 39.6962 19.0099ZM6.77163 20.0847L6.84736 19.8834L7.0501 19.3448L7.34456 18.5634H6.45224L8.1268 16.5572L7.55387 18.0343H8.48994L7.55576 19.1496L6.82855 20.0175L6.77163 20.0847Z" fill="#35B574"/>
</g>
</g>
</g>
<path id="Vector_5" d="M43.7192 22.3299C43.7192 10.5172 34.1431 0.94104 22.3303 0.94104C10.5175 0.94104 0.941406 10.5172 0.941406 22.3299C0.941406 34.1427 10.5175 43.7188 22.3303 43.7188C34.1431 43.7188 43.7192 34.1427 43.7192 22.3299Z" stroke="#35B574" stroke-opacity="0.2" stroke-width="1.22222"/>
</g>
<defs>
<clipPath id="clip0_28_10609">
<rect width="44" height="44" fill="white" transform="translate(0.330078 0.329956)"/>
</clipPath>
</defs>
</svg>
